<svg width="207" height="44" viewBox="0 0 207 44" fill="none" xmlns="http://www.w3.org/2000/svg">
<g style="mix-blend-mode:exclusion" filter="url(#filter0_bd_1_13)">
<path d="M21.4526 16.432H7.19661L21.8846 1.84H5.66061V34H4.22061V0.399998H25.3886L10.7006 14.992H21.4526V16.432ZM30.4192 6.16H31.8592V34H30.4192V6.16ZM40.9661 34V6.16H42.4061L58.0541 31.36V6.16H59.4941V34H58.0541L42.4061 8.752V34H40.9661ZM71.1664 32.56H86.8144L76.9744 9.376L66.5104 34H64.9744L76.9744 5.68L88.9744 34H71.1664V32.56ZM95.4105 6.16V20.08C95.4105 24.848 96.1625 28.208 97.6665 30.16C99.2025 32.08 101.298 33.04 103.954 33.04C106.61 33.04 108.69 32.08 110.194 30.16C111.73 28.208 112.498 24.848 112.498 20.08V6.16H113.938V20.08C113.938 29.68 110.61 34.48 103.954 34.48C97.2985 34.48 93.9705 29.68 93.9705 20.08V6.16H95.4105ZM140.575 6.16V7.6H130.495V34H129.055V7.6H118.975V6.16H140.575ZM146.107 6.16H147.547V34H146.107V6.16ZM158.046 31.072C156.318 28.8 155.454 25.136 155.454 20.08C155.454 15.024 156.318 11.36 158.046 9.088C159.774 6.816 162.638 5.68 166.638 5.68C170.638 5.68 173.518 6.784 175.278 8.992L174.222 9.952C172.814 8.064 170.286 7.12 166.638 7.12C165.038 7.12 163.694 7.296 162.606 7.648C161.518 7.968 160.51 8.592 159.582 9.52C158.686 10.416 158.014 11.744 157.566 13.504C157.118 15.232 156.894 17.424 156.894 20.08C156.894 22.736 157.118 24.944 157.566 26.704C158.014 28.432 158.686 29.76 159.582 30.688C160.51 31.584 161.518 32.208 162.606 32.56C163.694 32.88 165.038 33.04 166.638 33.04C170.286 33.04 172.814 32.096 174.222 30.208L175.278 31.168C173.518 33.376 170.638 34.48 166.638 34.48C162.638 34.48 159.774 33.344 158.046 31.072ZM184.979 32.56H200.627L190.787 9.376L180.323 34H178.787L190.787 5.68L202.787 34H184.979V32.56Z" fill="#E6E6E6"/>
</g>
<defs>
<filter id="filter0_bd_1_13" x="0.220612" y="-3.60001" width="206.566" height="47.08" filterUnits="userSpaceOnUse" color-interpolation-filters="sRGB">
<feFlood flood-opacity="0" result="BackgroundImageFix"/>
<feGaussianBlur in="BackgroundImageFix" stdDeviation="2"/>
<feComposite in2="SourceAlpha" operator="in" result="effect1_backgroundBlur_1_13"/>
<feColorMatrix in="SourceAlpha" type="matrix" values="0 0 0 0 0 0 0 0 0 0 0 0 0 0 0 0 0 0 127 0" result="hardAlpha"/>
<feOffset dy="5"/>
<feGaussianBlur stdDeviation="2"/>
<feComposite in2="hardAlpha" operator="out"/>
<feColorMatrix type="matrix" values="0 0 0 0 0 0 0 0 0 0 0 0 0 0 0 0 0 0 0.25 0"/>
<feBlend mode="normal" in2="effect1_backgroundBlur_1_13" result="effect2_dropShadow_1_13"/>
<feBlend mode="normal" in="SourceGraphic" in2="effect2_dropShadow_1_13" result="shape"/>
</filter>
</defs>
</svg>
