<svg width="20" height="19" viewBox="0 0 20 19" fill="none" xmlns="http://www.w3.org/2000/svg">
<path d="M0.5 3C0.5 1.61929 1.61929 0.5 3 0.5H6C7.38071 0.5 8.5 1.61929 8.5 3V6C8.5 7.38071 7.38071 8.5 6 8.5H3C1.61929 8.5 0.5 7.38071 0.5 6V3ZM11.5 3C11.5 1.61929 12.6193 0.5 14 0.5H17C18.3807 0.5 19.5 1.61929 19.5 3V6C19.5 7.38071 18.3807 8.5 17 8.5H14C12.6193 8.5 11.5 7.38071 11.5 6V3ZM0.5 13C0.5 11.6193 1.61929 10.5 3 10.5H6C7.38071 10.5 8.5 11.6193 8.5 13V16C8.5 17.3807 7.38071 18.5 6 18.5H3C1.61929 18.5 0.5 17.3807 0.5 16V13ZM11.5 13C11.5 11.6193 12.6193 10.5 14 10.5H17C18.3807 10.5 19.5 11.6193 19.5 13V16C19.5 17.3807 18.3807 18.5 17 18.5H14C12.6193 18.5 11.5 17.3807 11.5 16V13Z" stroke="white"/>
</svg>
